<?xml version="1.0" encoding="utf-8"?>
<!-- Generator: Adobe Illustrator 23.0.2, SVG Export Plug-In . SVG Version: 6.00 Build 0)  -->
<svg version="1.1" id="Layer_1" xmlns="http://www.w3.org/2000/svg" x="0px" y="0px" width="25px" height="25px"
     viewBox="0 0 31.2 31.2" style="enable-background:new 0 0 31.2 31.2;" xml:space="preserve">
<style type="text/css">
	.st0{fill:url(#SVGID_1_);}
</style>
<linearGradient id="SVGID_1_" gradientUnits="userSpaceOnUse" x1="8.3695" y1="5.2922" x2="23.9951" y2="27.578">
	<stop  offset="0" style="stop-color:#D6DE23"/>
	<stop  offset="0.1635" style="stop-color:#D3DD24"/>
	<stop  offset="0.2948" style="stop-color:#C9DA28"/>
	<stop  offset="0.4149" style="stop-color:#B8D42E"/>
	<stop  offset="0.5276" style="stop-color:#A0CC37"/>
	<stop  offset="0.6061" style="stop-color:#8BC53F"/>
	<stop  offset="1" style="stop-color:#25A9E0"/>
</linearGradient>
<path class="st0" d="M23.3,29.1c-3.2,1.7-8.2,1.8-11.4-1.2c-4.8-4.6-1.5-11.1-1.5-11.1l0.1,0.1c0.5,0.4,3.6,2.7,7.5,0.1
	c1.9-1.3,2.7-5.1,0.3-7.6c-1.2-1.3-6.3-2.8-11.2,3c-3.1,3.6-3.1,12.7,4,18.2c0,0-7.8-2.5-9-12.1C1.2,9.6,7,2.7,15.9,2.6
	C23.8,2.6,27,9.1,26,14.2c-1.1,5.6-8.2,7.8-12.5,5.8c-0.3,1.5-0.8,4.7,1.3,6.6c3.4,3,11.1,2.5,15.2-4.9c0.8-1.9,1.3-4,1.3-6.2
	C31.2,7,24.2,0,15.6,0C7,0,0,7,0,15.6c0,8.6,7,15.6,15.6,15.6c3.3,0,6.3-1,8.9-2.8C24.1,28.7,23.7,28.9,23.3,29.1z"/>
</svg>
