<!-- icon666.com - MILLIONS vector ICONS FREE --><svg width="64" height="64" id="Layer_1" viewBox="0 0 100 100" xmlns="http://www.w3.org/2000/svg" data-name="Layer 1"><path d="m88.53 53.861h-3.23a1 1 0 0 0 0 2h3.23a1 1 0 0 0 0-2z" fill="#000000" style="fill: rgb(255, 255, 255);"></path><path d="m77.546 53.861a1 1 0 0 0 0 2h4.231a1 1 0 0 0 0-2z" fill="#000000" style="fill: rgb(255, 255, 255);"></path><path d="m88.53 58.212h-14.885a1 1 0 0 0 0 2h14.885a1 1 0 0 0 0-2z" fill="#000000" style="fill: rgb(255, 255, 255);"></path><path d="m88.53 62.562h-12.844a1 1 0 0 0 0 2h12.844a1 1 0 0 0 0-2z" fill="#000000" style="fill: rgb(255, 255, 255);"></path><path d="m67.4 63.562a1 1 0 0 0 1 1h3.762a1 1 0 0 0 0-2h-3.762a1 1 0 0 0 -1 1z" fill="#000000" style="fill: rgb(255, 255, 255);"></path><path d="m88.53 66.911h-20.13a1 1 0 0 0 0 2h20.13a1 1 0 0 0 0-2z" fill="#000000" style="fill: rgb(255, 255, 255);"></path><path d="m88.53 71.262h-7.113a1 1 0 0 0 0 2h7.113a1 1 0 0 0 0-2z" fill="#000000" style="fill: rgb(255, 255, 255);"></path><path d="m77.9 71.262h-9.5a1 1 0 1 0 0 2h9.5a1 1 0 1 0 0-2z" fill="#000000" style="fill: rgb(255, 255, 255);"></path><path d="m68.4 52.23h20.13a1 1 0 0 0 1-1v-9.63a1 1 0 0 0 -1-1h-20.13a1 1 0 0 0 -1 1v9.63a1 1 0 0 0 1 1zm1-9.63h18.13v7.63h-18.13z" fill="#000000" style="fill: rgb(255, 255, 255);"></path><path d="m78.465 80.029a2.176 2.176 0 1 0 2.177 2.176 2.176 2.176 0 0 0 -2.177-2.176z" fill="#000000" style="fill: rgb(255, 255, 255);"></path><path d="m76 26.366a1 1 0 0 0 1-1v-7.4a5.572 5.572 0 0 0 -5.565-5.566h-57.9a5.572 5.572 0 0 0 -5.566 5.565v2.869a1 1 0 0 0 2 0v-2.868a3.569 3.569 0 0 1 3.563-3.566h57.9a3.57 3.57 0 0 1 3.568 3.566v7.4a1 1 0 0 0 1 1z" fill="#000000" style="fill: rgb(255, 255, 255);"></path><path d="m8.966 24.366a1 1 0 0 0 -1 1v4.519a1 1 0 0 0 2 0v-4.519a1 1 0 0 0 -1-1z" fill="#000000" style="fill: rgb(255, 255, 255);"></path><path d="m90.43 33.73h-13.424v-3.849a1 1 0 0 0 -2 0v3.849h-3.183v-15.069a1 1 0 0 0 -1-1h-56.68a1 1 0 0 0 -1 1v39.539a1 1 0 0 0 1 1h48.287v3.26h-48.9a3.564 3.564 0 0 1 -3.559-3.56v-24.489a1 1 0 0 0 -2 0v24.489a5.531 5.531 0 0 0 1.294 3.56h-1.855a1.911 1.911 0 0 0 -1.91 1.91v1.021a7.966 7.966 0 0 0 7.963 7.949h48.967v4.471 5.719a4.074 4.074 0 0 0 4.07 4.07h23.93a4.074 4.074 0 0 0 4.07-4.07v-45.73a4.074 4.074 0 0 0 -4.07-4.07zm-75.287 23.47v-37.539h54.68v14.069h-3.323a4.074 4.074 0 0 0 -2.689 1.02h-10.019a1 1 0 0 0 0 2h8.778a4.089 4.089 0 0 0 -.14 1.05v1.3h-.919a1 1 0 0 0 0 2h.919v2.35h-26.677a1 1 0 0 0 0 2h26.677v2.35h-17.68a1 1 0 0 0 0 2h17.68v7.4zm27.34 8.39h-7.383a1.6 1.6 0 0 1 -1.521-1.09l-.014-.041h17.835l-.014.041a1.6 1.6 0 0 1 -1.518 1.089zm-29.02 5.75a5.963 5.963 0 0 1 -5.963-5.948v-.931h23.953l.232.684a3.6 3.6 0 0 0 3.415 2.446h14.77a3.6 3.6 0 0 0 3.412-2.446l.232-.684h8.916v6.879zm79.037 12.19a2.074 2.074 0 0 1 -2.07 2.07h-23.93a2.074 2.074 0 0 1 -2.07-2.07v-4.718h25a1 1 0 0 0 0-2h-25v-39.012a2.055 2.055 0 0 1 .47-1.31.078.078 0 0 1 .04-.04 2.061 2.061 0 0 1 1.56-.72h23.93a2.074 2.074 0 0 1 2.07 2.07z" fill="#000000" style="fill: rgb(255, 255, 255);"></path><path d="m31.083 22.942h-11.258a1 1 0 0 0 -1 1v24.448a1 1 0 0 0 2 0v-23.448h9.258v26.978h-10.258a1 1 0 0 0 0 2h11.258a1 1 0 0 0 1-1v-28.978a1 1 0 0 0 -1-1z" fill="#000000" style="fill: rgb(255, 255, 255);"></path><path d="m46.479 28.05h3.39a1 1 0 0 0 0-2h-3.39a1 1 0 0 0 0 2z" fill="#000000" style="fill: rgb(255, 255, 255);"></path><path d="m54.391 28.05h12a1 1 0 0 0 0-2h-12a1 1 0 0 0 0 2z" fill="#000000" style="fill: rgb(255, 255, 255);"></path><path d="m66.394 30.4h-19.913a1 1 0 1 0 0 2h19.913a1 1 0 0 0 0-2z" fill="#000000" style="fill: rgb(255, 255, 255);"></path><path d="m35.753 36.75h4.476a1 1 0 0 0 0-2h-4.476a1 1 0 0 0 0 2z" fill="#000000" style="fill: rgb(255, 255, 255);"></path><path d="m44.75 36.75h4.521a1 1 0 0 0 0-2h-4.521a1 1 0 0 0 0 2z" fill="#000000" style="fill: rgb(255, 255, 255);"></path><path d="m35.753 41.1h21.237a1 1 0 0 0 0-2h-21.237a1 1 0 0 0 0 2z" fill="#000000" style="fill: rgb(255, 255, 255);"></path><path d="m40.229 47.8h-4.476a1 1 0 0 0 0 2h4.476a1 1 0 0 0 0-2z" fill="#000000" style="fill: rgb(255, 255, 255);"></path></svg>