<!-- icon666.com - MILLIONS vector ICONS FREE --><svg width="64" height="64" viewBox="0 0 471.135 471" xmlns="http://www.w3.org/2000/svg" xmlns:xlink="http://www.w3.org/1999/xlink"><linearGradient id="a"><stop offset="0" stop-color="#4761ac"></stop><stop offset="1" stop-color="#54c2ef"></stop></linearGradient><linearGradient id="b" gradientTransform="matrix(.999713 0 0 -.999713 0 462.230533)" gradientUnits="userSpaceOnUse" x1="-13.9824" x2="485.404" xlink:href="#a" y1="226.7278" y2="226.7278"></linearGradient><linearGradient id="c" gradientTransform="matrix(.999713 0 0 -.999713 0 462.230533)" gradientUnits="userSpaceOnUse" x1="-13.9824" x2="485.404" xlink:href="#a" y1="93.2395" y2="93.2395"></linearGradient><linearGradient id="d" gradientTransform="matrix(.999713 0 0 -.999713 0 462.230533)" gradientUnits="userSpaceOnUse" x1="-13.9824" x2="485.404" xlink:href="#a" y1="375.9207" y2="375.9207"></linearGradient><linearGradient id="e" gradientTransform="matrix(.999713 0 0 -.999713 0 462.230533)" gradientUnits="userSpaceOnUse" x1="-13.9824" x2="485.404" xlink:href="#a" y1="391.6252" y2="391.6252"></linearGradient><path d="m439.601562.0664062h-408.203124c-17.332032.0195313-31.3789068 14.0664058-31.398438 31.4023438v345.398438c.0195312 17.335937 14.066406 31.382812 31.398438 31.398437h133.453124v15.703125h-31.402343c-21.667969.023438-39.222657 17.582031-39.25 39.246094v7.851562h282.601562v-7.851562c-.027343-21.664063-17.582031-39.222656-39.25-39.246094h-31.402343v-15.703125h133.453124c17.332032-.015625 31.378907-14.0625 31.398438-31.398437v-345.398438c-.019531-17.335938-14.066406-31.3828125-31.398438-31.4023438zm-408.203124 15.7031248h408.203124c8.664063.007813 15.6875 7.03125 15.699219 15.699219h-439.601562c.011719-8.667969 7.035156-15.691406 15.699219-15.699219zm306.152343 423.898438c9.976563.011719 18.867188 6.296875 22.203125 15.699219h-248.507812c3.335937-9.402344 12.226562-15.6875 22.203125-15.699219zm-47.101562-15.699219h-109.898438v-15.699219h109.898438zm164.851562-47.101562c-.011719 8.667968-7.035156 15.691406-15.699219 15.699218h-408.203124c-8.664063-.007812-15.6875-7.03125-15.699219-15.699218v-31.398438h439.601562zm-314.242187-232.476563c-1.261719-.535156-2.476563-1.171875-3.632813-1.902344-10.429687-6.726562-23.828125-6.726562-34.253906 0-5.445313 3.738281-12.632813 3.738281-18.078125 0-5.0625-3.382812-11.03125-5.140625-17.117188-5.046875-6.085937-.09375-12.054687 1.664063-17.113281 5.046875-1.089843.675781-2.21875 1.28125-3.386719 1.8125-.101562.042969-.203124.101563-.304687.140625-1.21875-16.152344 19.054687-34.710937 34.089844-48.472656 4.984375-4.5625 9.410156-8.609375 12.941406-12.363281 3.527344 3.753906 7.957031 7.800781 12.9375 12.363281 15.042969 13.765625 35.324219 32.335938 34.09375 48.5zm-88.992188 14.945313c.921875-.335938 1.824219-.722657 2.703125-1.15625.371094-.175782.804688-.332032 1.148438-.511719 1.117187-.582031 2.117187-1.175781 3.023437-1.71875 2.613282-1.917969 5.792969-2.90625 9.03125-2.808594 3.242188-.097656 6.425782.890625 9.039063 2.808594 10.421875 6.726562 23.816406 6.726562 34.238281 0 5.457031-3.742188 12.652344-3.742188 18.105469 0 .910156.542969 1.910156 1.136719 3.035156 1.722656.351563.183594.796875.339844 1.175781.523437.882813.433594 1.785156.816407 2.710938 1.148438.117187.042969.199218.097656.320312.136719-4.945312 11.214843-12.410156 21.132812-21.820312 28.984375h-41.179688c-9.441406-7.824219-16.914062-17.761719-21.816406-29.007813.105469-.035156.179688-.082031.285156-.121093zm25.234375 44.832031h33.800781l7.847657 47.101562h-24.75c-4.335938 0-7.847657 3.515625-7.847657 7.847657 0 4.335937 3.515626 7.851562 7.847657 7.851562h27.367187l2.613282 15.699219h-59.960938zm-14.5 94.199219h62.800781v31.402343h-62.800781zm361.101563-94.199219h-31.402344v15.699219h31.402344v15.699218h-15.703125v15.703125h15.703125v15.699219h-31.402344v15.699219h31.402344v15.699219h-15.703125v15.703124h15.703125v15.699219h-54.953125v-31.402343c0-4.335938-3.515625-7.847657-7.855469-7.847657-2.378906 0-4.632812 1.082031-6.121094 2.941407l-29.046875 36.308593h-50.933593l144.121093-187.359375c1.039063-1.121094 2.789063-1.1875 3.910157-.148437.503906.464843.8125 1.09375.878906 1.773437zm-70.652344 125.601562h-7.21875l7.21875-9.023437zm-133.449219-66.519531c4.996094 2.085938 10.296875 3.34375 15.699219 3.71875 5.402344-.375 10.703125-1.632812 15.699219-3.71875v66.519531h-31.398438zm-33.003906-51.230469h50.304687l12.183594 35.066407c-4.363281 2.070312-9.007812 3.480468-13.785156 4.179687-7-1.308594-13.757812-3.675781-20.042969-7.019531-.191406-.097656-.402343-.128906-.601562-.207032-.597657-.269531-1.234375-.433593-1.882813-.496093-1.003906-.121094-2.019531-.0625-3 .167969-.296875.085937-.585937.1875-.871094.304687-.21875.085937-.449218.125-.664062.230469-6.28125 3.347656-13.039062 5.714844-20.039062 7.019531-4.773438-.703125-9.421876-2.113281-13.785157-4.183594zm5.453125-15.703125 15.550781-44.761718c1.589844-2.292969 4.734375-2.863282 7.027344-1.273438.496094.34375.929687.777344 1.273437 1.273438l15.550782 44.761718zm-19.550781 66.933594c4.996093 2.085938 10.300781 3.34375 15.703125 3.71875 5.398437-.375 10.703125-1.632812 15.699218-3.71875v66.519531h-31.402343zm282.601562 66.519531h-15.699219v-185.734375c0-10.144531-8.222656-18.367187-18.367187-18.367187-5.703125 0-11.085937 2.652343-14.5625 7.175781l-139.769531 181.695312v-63.273437c-.011719-.789063-.144532-1.570313-.394532-2.320313-.023437-.082031-.011718-.171874-.042968-.253906l-16.363282-47.101562-19.375-55.777344c-.113281-.320312-.242187-.632812-.394531-.933594-5.074219-10.15625-17.421875-14.269531-27.574219-9.191406-3.976562 1.988281-7.203124 5.210938-9.191406 9.191406-.152344.300782-.28125.613282-.394531.933594l-19.375 55.777344-16.363281 47.101562c-.027344.082032-.019532.171875-.042969.253906-.25.75-.378906 1.53125-.390625 2.320313v78.503906h-15.703125v-39.25c0-.246093-.117187-.449219-.136719-.6875-.019531-.203125.0625-.398437.03125-.601562l-14.976562-89.847657c13.507812-11.683593 23.425781-26.960937 28.597656-44.054687.019531-.070313.019531-.140625.039062-.210937.019532-.058594.0625-.109376.078126-.171876.382812-1.265624.761718-2.527343 1.082031-3.847656 6.375-25.84375-19.429688-49.460937-38.273438-66.703125-6.179687-5.019531-11.71875-10.777343-16.5-17.148437-2.289062-3.886719-7.300781-5.183594-11.1875-2.894532-1.195312.707032-2.191406 1.699219-2.894531 2.894532-4.78125 6.371094-10.324219 12.128906-16.503906 17.148437-18.839844 17.242188-44.644532 40.863281-38.273438 66.710938.300782 1.21875.644532 2.382812 1.195313 4.214843l.007812.019532c5.175781 17.089844 15.089844 32.359375 28.597657 44.042968l-14.976563 89.851563c-.035156.203125.050781.394531.03125.601563-.023437.234374-.140625.441406-.140625.683593v39.25h-31.394531v-282.601562h439.601562zm0 0" fill="url(#b)" style="fill: rgb(255, 255, 255);"></path><g fill="url(#c)"><path d="m188.398438 361.167969h15.703124v15.699219h-15.703124zm0 0" fill="url(#c)" style="fill: rgb(255, 255, 255);"></path><path d="m219.800781 361.167969h31.398438v15.699219h-31.398438zm0 0" fill="url(#c)" style="fill: rgb(255, 255, 255);"></path><path d="m266.902344 361.167969h15.699218v15.699219h-15.699218zm0 0" fill="url(#c)" style="fill: rgb(255, 255, 255);"></path></g><path d="m416.050781 109.96875h15.699219v-47.101562h-94.199219v15.699218h78.5zm0 0" fill="url(#d)" style="fill: rgb(255, 255, 255);"></path><path d="m306.148438 62.867188h15.703124v15.699218h-15.703124zm0 0" fill="url(#e)" style="fill: rgb(255, 255, 255);"></path></svg>