<?xml version="1.0" encoding="UTF-8"?>
<svg xmlns="http://www.w3.org/2000/svg" xmlns:xlink="http://www.w3.org/1999/xlink" width="64px" height="64px" viewBox="0 0 64 64" version="1.1">
<g id="surface1">
<path style=" stroke:none;fill-rule:nonzero;fill:rgb(100%,100%,100%);fill-opacity:1;" d="M 14.519531 11.699219 C 14.109375 11.695312 13.773438 11.363281 13.769531 10.949219 L 13.769531 7.320312 C 13.777344 3.964844 16.496094 1.25 19.851562 1.25 L 43.148438 1.25 C 46.503906 1.25 49.222656 3.964844 49.230469 7.320312 L 49.230469 8.851562 C 49.230469 9.265625 48.894531 9.601562 48.480469 9.601562 C 48.066406 9.601562 47.730469 9.265625 47.730469 8.851562 L 47.730469 7.320312 C 47.722656 4.792969 45.675781 2.75 43.148438 2.75 L 19.851562 2.75 C 17.324219 2.75 15.277344 4.792969 15.269531 7.320312 L 15.269531 11 C 15.242188 11.394531 14.914062 11.699219 14.519531 11.699219 Z M 14.519531 11.699219 "/>
<path style=" stroke:none;fill-rule:nonzero;fill:rgb(100%,100%,100%);fill-opacity:1;" d="M 43.148438 62.75 L 19.851562 62.75 C 16.496094 62.75 13.777344 60.035156 13.769531 56.679688 L 13.769531 29.679688 C 13.769531 29.265625 14.105469 28.929688 14.519531 28.929688 C 14.933594 28.929688 15.269531 29.265625 15.269531 29.679688 L 15.269531 56.679688 C 15.277344 59.207031 17.324219 61.25 19.851562 61.25 L 43.148438 61.25 C 45.675781 61.25 47.722656 59.207031 47.730469 56.679688 L 47.730469 52.160156 C 47.730469 51.746094 48.066406 51.410156 48.480469 51.410156 C 48.894531 51.410156 49.230469 51.746094 49.230469 52.160156 L 49.230469 56.679688 C 49.222656 60.035156 46.503906 62.75 43.148438 62.75 Z M 43.148438 62.75 "/>
<path style=" stroke:none;fill-rule:nonzero;fill:rgb(100%,100%,100%);fill-opacity:1;" d="M 33.710938 6.53125 L 29.289062 6.53125 C 28.875 6.53125 28.539062 6.195312 28.539062 5.78125 C 28.539062 5.367188 28.875 5.03125 29.289062 5.03125 L 33.710938 5.03125 C 34.125 5.03125 34.460938 5.367188 34.460938 5.78125 C 34.460938 6.195312 34.125 6.53125 33.710938 6.53125 Z M 33.710938 6.53125 "/>
<path style=" stroke:none;fill-rule:nonzero;fill:rgb(100%,100%,100%);fill-opacity:1;" d="M 50.449219 52.910156 L 46.449219 52.910156 C 46.0625 52.910156 45.734375 52.617188 45.699219 52.230469 L 45.460938 49.679688 C 44.5625 49.433594 43.703125 49.070312 42.898438 48.601562 L 40.898438 50.21875 C 40.617188 50.476562 40.183594 50.476562 39.898438 50.21875 L 37.109375 47.421875 C 36.832031 47.152344 36.808594 46.714844 37.058594 46.421875 L 38.671875 44.421875 C 38.1875 43.59375 37.820312 42.707031 37.578125 41.78125 L 35.050781 41.550781 C 34.664062 41.507812 34.371094 41.1875 34.371094 40.800781 L 34.371094 36.800781 C 34.375 36.414062 34.667969 36.097656 35.050781 36.058594 L 37.578125 35.820312 C 37.824219 34.894531 38.191406 34.007812 38.671875 33.179688 L 37.058594 31.230469 C 36.8125 30.933594 36.835938 30.5 37.109375 30.230469 L 39.898438 27.441406 C 40.167969 27.167969 40.605469 27.144531 40.898438 27.390625 L 42.898438 29.019531 C 43.71875 28.5625 44.597656 28.21875 45.511719 28 L 45.75 25.441406 C 45.792969 25.058594 46.113281 24.769531 46.5 24.769531 L 50.5 24.769531 C 50.886719 24.769531 51.207031 25.058594 51.25 25.441406 L 51.441406 28 C 52.355469 28.214844 53.242188 28.550781 54.070312 29 L 56.070312 27.371094 C 56.367188 27.125 56.800781 27.144531 57.070312 27.421875 L 59.859375 30.210938 C 60.121094 30.492188 60.121094 30.925781 59.859375 31.210938 L 58.230469 33.210938 C 58.710938 34.03125 59.078125 34.910156 59.320312 35.828125 L 61.851562 36.070312 C 62.234375 36.105469 62.527344 36.425781 62.53125 36.808594 L 62.53125 40.808594 C 62.527344 41.195312 62.234375 41.519531 61.851562 41.558594 L 59.320312 41.789062 C 59.078125 42.710938 58.710938 43.597656 58.230469 44.421875 L 59.859375 46.421875 C 60.121094 46.703125 60.121094 47.136719 59.859375 47.421875 L 57.070312 50.21875 C 56.785156 50.476562 56.355469 50.476562 56.070312 50.21875 L 54.070312 48.601562 C 53.242188 49.074219 52.359375 49.441406 51.441406 49.691406 L 51.199219 52.230469 C 51.164062 52.617188 50.839844 52.910156 50.449219 52.910156 Z M 47.179688 51.410156 L 49.769531 51.410156 L 50 49 C 50.03125 48.675781 50.269531 48.40625 50.589844 48.339844 C 51.707031 48.101562 52.769531 47.660156 53.730469 47.039062 C 54.003906 46.859375 54.367188 46.878906 54.621094 47.089844 L 56.46875 48.621094 L 58.300781 46.800781 L 56.769531 45 C 56.5625 44.75 56.542969 44.390625 56.71875 44.121094 C 57.335938 43.140625 57.769531 42.054688 58 40.921875 C 58.070312 40.601562 58.335938 40.367188 58.660156 40.339844 L 61.039062 40.121094 L 61.039062 37.519531 L 58.660156 37.300781 C 58.335938 37.269531 58.066406 37.03125 58 36.710938 C 57.761719 35.59375 57.320312 34.527344 56.699219 33.570312 C 56.519531 33.296875 56.542969 32.941406 56.75 32.691406 L 58.28125 30.828125 L 56.46875 29 L 54.621094 30.53125 C 54.367188 30.738281 54.007812 30.761719 53.730469 30.589844 C 52.769531 29.964844 51.707031 29.523438 50.589844 29.28125 C 50.269531 29.214844 50.027344 28.945312 50 28.621094 L 49.769531 26.230469 L 47.179688 26.230469 L 47 28.640625 C 46.972656 28.972656 46.726562 29.242188 46.398438 29.300781 C 45.292969 29.53125 44.238281 29.96875 43.289062 30.589844 C 43.011719 30.761719 42.652344 30.738281 42.398438 30.53125 L 40.5 29 L 38.671875 30.828125 L 40.191406 32.671875 C 40.390625 32.925781 40.410156 33.273438 40.238281 33.550781 C 39.617188 34.515625 39.171875 35.585938 38.929688 36.710938 C 38.867188 37.03125 38.597656 37.273438 38.269531 37.300781 L 35.890625 37.519531 L 35.890625 40.121094 L 38.269531 40.339844 C 38.597656 40.363281 38.871094 40.605469 38.929688 40.929688 C 39.171875 42.050781 39.617188 43.117188 40.238281 44.078125 C 40.410156 44.359375 40.390625 44.714844 40.191406 44.96875 L 38.671875 46.800781 L 40.5 48.628906 L 42.351562 47.101562 C 42.601562 46.890625 42.964844 46.871094 43.238281 47.050781 C 44.1875 47.667969 45.242188 48.101562 46.351562 48.328125 C 46.695312 48.375 46.964844 48.652344 47 49 Z M 61.808594 40.800781 Z M 48.480469 44.429688 C 45.378906 44.433594 42.863281 41.925781 42.859375 38.828125 C 42.855469 35.726562 45.367188 33.210938 48.464844 33.210938 C 51.566406 33.207031 54.078125 35.71875 54.078125 38.820312 C 54.074219 41.914062 51.570312 44.417969 48.480469 44.429688 Z M 48.480469 34.710938 C 46.207031 34.703125 44.363281 36.542969 44.359375 38.8125 C 44.355469 41.085938 46.195312 42.929688 48.464844 42.929688 C 50.738281 42.933594 52.578125 41.089844 52.578125 38.820312 C 52.574219 36.554688 50.742188 34.722656 48.480469 34.710938 Z M 48.480469 34.710938 "/>
<path style=" stroke:none;fill-rule:nonzero;fill:rgb(100%,100%,100%);fill-opacity:1;" d="M 22.460938 30.46875 L 5.570312 30.46875 C 3.289062 30.46875 1.441406 28.621094 1.441406 26.339844 L 1.441406 14.339844 C 1.4375 13.242188 1.871094 12.191406 2.644531 11.414062 C 3.421875 10.636719 4.472656 10.199219 5.570312 10.199219 L 22.460938 10.199219 C 24.738281 10.199219 26.585938 12.042969 26.589844 14.320312 L 26.589844 26.320312 C 26.59375 27.417969 26.164062 28.472656 25.386719 29.253906 C 24.613281 30.03125 23.558594 30.46875 22.460938 30.46875 Z M 5.570312 11.699219 C 4.121094 11.699219 2.945312 12.871094 2.941406 14.320312 L 2.941406 26.320312 C 2.925781 27.027344 3.199219 27.707031 3.691406 28.210938 C 4.1875 28.714844 4.863281 29 5.570312 29 L 22.460938 29 C 23.914062 29 25.089844 27.824219 25.089844 26.371094 L 25.089844 14.371094 C 25.085938 12.921875 23.910156 11.75 22.460938 11.75 Z M 5.570312 11.699219 "/>
<path style=" stroke:none;fill-rule:nonzero;fill:rgb(100%,100%,100%);fill-opacity:1;" d="M 2.269531 27.839844 C 1.980469 27.835938 1.71875 27.667969 1.597656 27.40625 C 1.472656 27.140625 1.515625 26.832031 1.699219 26.609375 L 6.28125 21.21875 C 6.527344 20.917969 6.890625 20.734375 7.28125 20.710938 C 7.679688 20.691406 8.070312 20.84375 8.351562 21.128906 L 12.351562 25.03125 L 17.621094 18.539062 C 17.871094 18.214844 18.25 18.019531 18.660156 18 C 19.082031 17.980469 19.488281 18.160156 19.761719 18.480469 L 26.398438 25.898438 C 26.542969 26.050781 26.617188 26.253906 26.605469 26.460938 C 26.59375 26.671875 26.5 26.863281 26.339844 27 C 26.191406 27.132812 25.996094 27.199219 25.796875 27.191406 C 25.597656 27.179688 25.414062 27.089844 25.28125 26.941406 L 18.699219 19.550781 L 13 26.621094 C 12.863281 26.78125 12.664062 26.878906 12.449219 26.890625 C 12.242188 26.902344 12.039062 26.828125 11.890625 26.679688 L 7.371094 22.25 L 2.851562 27.578125 C 2.703125 27.746094 2.492188 27.839844 2.269531 27.839844 Z M 2.269531 27.839844 "/>
<path style=" stroke:none;fill-rule:nonzero;fill:rgb(100%,100%,100%);fill-opacity:1;" d="M 11.339844 18.820312 C 9.882812 18.808594 8.710938 17.621094 8.71875 16.167969 C 8.726562 14.710938 9.910156 13.535156 11.367188 13.539062 C 12.820312 13.542969 14 14.722656 14 16.179688 C 13.996094 17.644531 12.804688 18.824219 11.339844 18.820312 Z M 11.339844 15.039062 C 10.710938 15.039062 10.199219 15.550781 10.199219 16.179688 C 10.199219 16.808594 10.710938 17.320312 11.339844 17.320312 C 11.96875 17.320312 12.480469 16.808594 12.480469 16.179688 C 12.488281 15.871094 12.371094 15.574219 12.15625 15.351562 C 11.941406 15.128906 11.648438 15.003906 11.339844 15 Z M 11.339844 15.039062 "/>
<path style=" stroke:none;fill-rule:nonzero;fill:rgb(100%,100%,100%);fill-opacity:1;" d="M 48.480469 21.769531 L 31.480469 21.769531 C 31.066406 21.769531 30.730469 21.433594 30.730469 21.019531 C 30.730469 20.605469 31.066406 20.269531 31.480469 20.269531 L 48.480469 20.269531 C 48.894531 20.269531 49.230469 20.605469 49.230469 21.019531 C 49.230469 21.433594 48.894531 21.769531 48.480469 21.769531 Z M 48.480469 21.769531 "/>
<path style=" stroke:none;fill-rule:nonzero;fill:rgb(100%,100%,100%);fill-opacity:1;" d="M 42 17.671875 L 31.5 17.671875 C 31.085938 17.671875 30.75 17.335938 30.75 16.921875 C 30.75 16.503906 31.085938 16.171875 31.5 16.171875 L 42 16.171875 C 42.414062 16.171875 42.75 16.503906 42.75 16.921875 C 42.75 17.335938 42.414062 17.671875 42 17.671875 Z M 42 17.671875 "/>
<path style=" stroke:none;fill-rule:nonzero;fill:rgb(100%,100%,100%);fill-opacity:1;" d="M 54.859375 17.671875 L 44.859375 17.671875 C 44.445312 17.671875 44.109375 17.335938 44.109375 16.921875 C 44.109375 16.503906 44.445312 16.171875 44.859375 16.171875 L 54.859375 16.171875 C 55.273438 16.171875 55.609375 16.503906 55.609375 16.921875 C 55.609375 17.335938 55.273438 17.671875 54.859375 17.671875 Z M 54.859375 17.671875 "/>
<path style=" stroke:none;fill-rule:nonzero;fill:rgb(100%,100%,100%);fill-opacity:1;" d="M 37 13.300781 L 31.5 13.300781 C 31.085938 13.300781 30.75 12.964844 30.75 12.550781 C 30.75 12.136719 31.085938 11.800781 31.5 11.800781 L 37 11.800781 C 37.414062 11.800781 37.75 12.136719 37.75 12.550781 C 37.75 12.964844 37.414062 13.300781 37 13.300781 Z M 37 13.300781 "/>
<path style=" stroke:none;fill-rule:nonzero;fill:rgb(100%,100%,100%);fill-opacity:1;" d="M 54.859375 13.300781 L 39.769531 13.300781 C 39.355469 13.300781 39.019531 12.964844 39.019531 12.550781 C 39.019531 12.136719 39.355469 11.800781 39.769531 11.800781 L 54.859375 11.800781 C 55.273438 11.800781 55.609375 12.136719 55.609375 12.550781 C 55.609375 12.964844 55.273438 13.300781 54.859375 13.300781 Z M 54.859375 13.300781 "/>
<path style=" stroke:none;fill-rule:nonzero;fill:rgb(100%,100%,100%);fill-opacity:1;" d="M 36.71875 6.53125 L 36 6.53125 C 35.578125 6.53125 35.234375 6.1875 35.234375 5.765625 C 35.234375 5.34375 35.578125 5 36 5 L 36.730469 5 C 37.144531 5 37.480469 5.335938 37.480469 5.75 C 37.480469 6.164062 37.144531 6.5 36.730469 6.5 Z M 36.71875 6.53125 "/>
<path style=" stroke:none;fill-rule:nonzero;fill:rgb(100%,100%,100%);fill-opacity:1;" d="M 31.5 59.289062 C 29.882812 59.289062 28.570312 57.976562 28.570312 56.359375 C 28.570312 54.742188 29.882812 53.429688 31.5 53.429688 C 33.117188 53.429688 34.429688 54.742188 34.429688 56.359375 C 34.425781 57.976562 33.117188 59.285156 31.5 59.289062 Z M 31.5 54.929688 C 30.710938 54.929688 30.070312 55.570312 30.070312 56.359375 C 30.070312 57.148438 30.710938 57.789062 31.5 57.789062 C 32.289062 57.789062 32.929688 57.148438 32.929688 56.359375 C 32.929688 55.570312 32.289062 54.929688 31.5 54.929688 Z M 31.5 54.929688 "/>
</g>
</svg>
