<!-- icon666.com - MILLIONS vector ICONS FREE --><svg width="64" height="64" id="Layer_1" enable-background="new 0 0 64 64" viewBox="0 0 64 64" xmlns="http://www.w3.org/2000/svg"><g><path d="m52.63887 10.38989v49.40363c0 2.39309-1.9425 4.33559-4.34562 4.33559h-28.66686c-2.40312 0-4.34562-1.9425-4.34562-4.33559v-49.40363c0-2.39303 1.9425-4.33554 4.34562-4.33554h28.66685c2.40312 0 4.34563 1.94251 4.34563 4.33554z" style="fill: rgb(255, 255, 255);"></path><path d="m15.28077 56.46753v3.32606c0 2.39303 1.9425 4.33553 4.34562 4.33553h28.66685c2.40312 0 4.34562-1.9425 4.34562-4.33553v-3.32606z" fill="#8f9fff" style="fill: rgb(255, 255, 255);"></path><path d="m52.63887 12.45695v-2.06699c0-2.3931-1.9425-4.3356-4.34562-4.3356h-28.66686c-2.40312 0-4.34562 1.9425-4.34562 4.3356v2.06699z" fill="#8f9fff" style="fill: rgb(255, 255, 255);"></path><path d="m4.724 18.973h28.735v8.54h-28.735z" fill="#fff" style="fill: rgb(255, 255, 255);"></path><path d="m41.067 29.093h16.146v13.009h-16.146z" fill="#fff" style="fill: rgb(255, 255, 255);"></path><path d="m51.85841 35.60241-4.66225 2.94379v-5.89761z" fill="#8f9fff" style="fill: rgb(255, 255, 255);"></path><path d="m25.10315 43.77114c-.16771.68761-.44163 1.33611-.79942 1.9231l1.10133 1.6212-1.75539 1.75539-1.62123-1.10129c-.58698.35776-1.23546.63172-1.9231.79383l-.36895 1.9287h-2.48214l-.36895-1.9231c-.68764-.16771-1.33052-.44167-1.9175-.79942l-1.62123 1.10129-1.75539-1.75539 1.10133-1.6212c-.35779-.58699-.63172-1.23549-.79386-1.9231l-1.92866-.36898v-2.48214l1.92866-.36895c.16214-.68761.43607-1.33052.79386-1.9175l-1.10133-1.62123 1.75539-1.75539 1.62123 1.10133c.58699-.35779 1.22986-.63172 1.9175-.79942l.36895-1.9231h2.48214l.36895 1.9287c.68764.16211 1.33611.43604 1.9231.79383l1.62123-1.10133 1.75539 1.75539-1.10133 1.62123c.35779.58699.63172 1.23546.79386 1.9231l1.9231.36335v2.48214z" fill="#fff" style="fill: rgb(255, 255, 255);"></path><g fill="#2a44e2"><path d="m60.26645 18.50707c.14592.23469.45393.30584.68847.16064.23536-.146.30665-.45459.16114-.68896-.61914-.99463-1.30176-1.9707-2.0293-2.90039-.1709-.21826-.48438-.25537-.70215-.08545-.2168.16992-.25488.48438-.08496.70166.70508.90186 1.36719 1.84815 1.9668 2.8125z" fill="#2a44e2" style="fill: rgb(255, 255, 255);"></path><path d="m63.30648 22.14672c-.11035-.25342-.4043-.36719-.6582-.25879-.25293.11035-.36816.40527-.25781.6582 1.73144 3.9707 2.60937 8.19141 2.60937 12.54541 0 4.30664-.86035 8.48828-2.55761 12.42871-.10938.25342.00781.54785.26074.65674.25299.10925.54823-.00714.65723-.26123 1.75195-4.06592 2.63964-8.38086 2.63964-12.82422 0-4.49218-.90625-8.84765-2.69336-12.94482z" fill="#2a44e2" style="fill: rgb(255, 255, 255);"></path><path d="m3.3348 44.41576c-.08154-.26318-.35693-.40869-.62598-.3291-.26367.08203-.41113.36182-.3291.62598 1.78076 5.73633 5.12793 10.875 9.68018 14.86035.20784.18226.52413.1611.70557-.04639.18213-.20801.16113-.52393-.04639-.70557-4.41357-3.86425-7.65869-8.84521-9.38428-14.40527z" fill="#2a44e2" style="fill: rgb(255, 255, 255);"></path><path d="m2.48324 41.00463c-.23633-1.24023-.39893-2.50928-.48389-3.77246-.01855-.27539-.23779-.47217-.53271-.46534-.27539.01855-.48389.25684-.46533.53271.08789 1.30322.25586 2.61279.49951 3.89258.05067.26416.30503.44914.58496.39746.271-.05175.44922-.31347.39746-.58495z" fill="#2a44e2" style="fill: rgb(255, 255, 255);"></path><path d="m53.13852 14.4663c0-.10827 0-4.34573 0-4.07642 0-2.6665-2.17383-4.83545-4.8457-4.83545h-28.66651c-2.67188 0-4.8457 2.16895-4.8457 4.83545 0 .10268 0 3.28743 0 3.17035-1.67725 1.45715-3.17944 3.10638-4.47986 4.91315h-5.5763c-.27637 0-.5.22363-.5.5v8.54053c0 .27637.22363.5.5.5h1.10822c-.5824 2.26563-.90948 4.63263-.90948 7.07763 0 8.59399 3.82697 16.30414 9.85742 21.53918v3.16296c0 2.6665 2.17383 4.83545 4.8457 4.83545h28.66651c2.67188 0 4.8457-2.16895 4.8457-4.83545 0-.18658 0-4.18876 0-4.07672 5.44916-5.19897 8.85645-12.51886 8.85645-20.62543-.00001-8.10637-3.40724-15.42626-8.85645-20.62523zm-11.57129 27.13598v-12.00878h15.14551v12.00879h-15.14551zm-.5-13.00878c-.27637 0-.5.22363-.5.5v13.00879c0 .27637.22363.5.5.5h11.07129v13.36523h-36.35792v-7.03479c.22095.08936.44446.17126.67236.23792l.31006 1.61572c.04541.23535.25146.40576.49121.40576h2.48193c.23975 0 .4458-.17041.49121-.40625l.30957-1.61865c.50732-.14502 1-.34863 1.47021-.60791l1.36133.92529c.19922.13574.46582.11035.63477-.06006l1.75537-1.75537c.16992-.16943.19482-.43604.06006-.63428l-.9248-1.36182c.25732-.46777.46191-.95996.61133-1.47021l1.61035-.30957c.23535-.04541.40527-.25146.40527-.49121v-2.48193c0-.24023-.1709-.44678-.40723-.49121l-1.6123-.30469c-.14551-.50732-.34863-.99951-.60742-1.46973l.9248-1.36084c.13477-.19873.10986-.46533-.06006-.63477l-1.75537-1.75537c-.16992-.16992-.43604-.19482-.63428-.06006l-1.36133.9248c-.4707-.25928-.96338-.46289-1.4707-.60791l-.30957-1.61865c-.04541-.23535-.25146-.40576-.49121-.40576h-2.48193c-.23975 0-.4458.17041-.49121.40576l-.31006 1.61523c-.22791.06665-.45142.14856-.67236.23792v-7.38098h17.67871c.27637 0 .5-.22363.5-.5v-8.54053c0-.27637-.22363-.5-.5-.5h-17.67871v-5.5166h36.35791v15.63673zm-27.94776 16.84033c-.34082-.55908-.58789-1.15723-.73389-1.77734-.04541-.19189-.19922-.33936-.39307-.37646l-1.52246-.2915v-1.65479l1.52246-.2915c.19385-.03711.34766-.18457.39307-.37646.14453-.61426.3916-1.21045.73389-1.77197.10205-.16748.09717-.37891-.01318-.5415l-.86914-1.27881 1.17041-1.17041 1.2793.86865c.16211.11035.37354.11572.54102.01318.55811-.33984 1.15527-.58936 1.77539-.74023.19043-.04639.33594-.19922.37305-.3916l.29102-1.51709h1.65527l.2915 1.52246c.03711.19336.18457.34717.37646.39258.62012.146 1.21826.39307 1.77783.73389.16797.10254.37939.09717.54102-.01318l1.2793-.86865 1.17041 1.17041-.86914 1.27881c-.11035.1626-.11523.37402-.01318.5415.34082.55908.58789 1.15723.73389 1.77783.04541.19238.19971.33984.39404.37646l1.51611.28662v1.6543l-1.51221.29102c-.19189.03711-.34473.18262-.39111.37256-.15283.62695-.40234 1.22607-.74072 1.78125-.10205.16748-.09717.37891.01318.54102l.86914 1.27979-1.17041 1.17041-1.27882-.86918c-.16309-.11035-.37354-.11572-.5415-.01318-.55957.34082-1.15771.58789-1.77783.73389-.19189.04541-.33936.19922-.37646.39307l-.2915 1.52246h-1.65527l-.29102-1.51758c-.03711-.19238-.18262-.34521-.37305-.3916-.62012-.15088-1.21729-.40039-1.77539-.74023-.1665-.10107-.37793-.09668-.5415.01318l-1.27881.86914-1.17041-1.17041.86914-1.27979c.11034-.16212.11522-.37354.01317-.54102zm2.66113-35.04395c0-2.11475 1.7251-3.83545 3.8457-3.83545h28.66651c2.12012 0 3.8457 1.7207 3.8457 3.83545v1.56689h-36.35791zm-1 4.51105v3.57245h-3.23645c.97498-1.2829 2.05628-2.479 3.23645-3.57245zm-9.55615 4.57245h27.73487v7.54053h-27.73487zm.69873 15.61816c0-2.44873.33795-4.81689.94171-7.07763h7.91571v7.61267l-1.15332-.78308c-.19824-.13428-.46387-.10986-.63428.06006l-1.75537 1.75537c-.16992.16943-.19482.43604-.06006.63477l.9248 1.36084c-.25928.4707-.46289.96094-.60742 1.46484l-1.61865.30957c-.23584.04541-.40625.25146-.40625.49121v2.48193c0 .23975.17041.4458.40625.49121l1.61865.30957c.14502.50781.34863 1 .60742 1.47021l-.9248 1.36182c-.13477.19824-.10986.46484.06006.63428l1.75537 1.75537c.17041.16992.43652.19531.63477.06006l1.15283-.78345v6.58148c-5.4378-5.03222-8.85742-12.21527-8.85742-20.1911zm46.21534 24.70215c0 2.11475-1.72559 3.83545-3.8457 3.83545h-28.66651c-2.12061 0-3.8457-1.7207-3.8457-3.83545v-2.82617h36.35791zm1-5.48523v-11.70618h4.07422c.27637 0 .5-.22363.5-.5v-13.00878c0-.27637-.22363-.5-.5-.5h-4.07422v-12.71619c4.85211 4.96509 7.85645 11.74164 7.85645 19.21423-.00001 7.47339-3.00379 14.25147-7.85645 19.21692z" fill="#2a44e2" style="fill: rgb(255, 255, 255);"></path><circle cx="33.96" cy="60.298" r="1.436" fill="#2a44e2" style="fill: rgb(255, 255, 255);"></circle><path d="m33.69369 8.75561h-3.45166c-.27637 0-.5.22363-.5.5s.22363.5.5.5h3.45166c.27637 0 .5-.22363.5-.5s-.22363-.5-.5-.5z" fill="#2a44e2" style="fill: rgb(255, 255, 255);"></path><path d="m37.67758 8.75561h-1.33594c-.27637 0-.5.22363-.5.5s.22363.5.5.5h1.33594c.27637 0 .5-.22363.5-.5s-.22363-.5-.5-.5z" fill="#2a44e2" style="fill: rgb(255, 255, 255);"></path><path d="m47.46371 32.22631c-.1543-.09814-.34961-.10303-.5088-.01563-.15917.08789-.25878.25586-.25878.43799v5.89746c0 .18213.09863.3501.25878.43799.15902.08777.35416.08206.50782-.01514l4.66211-2.94385c.31152-.19653.3099-.649.00098-.84521zm.23242 5.41259v-4.08154l3.22656 2.04443z" fill="#2a44e2" style="fill: rgb(255, 255, 255);"></path><path d="m12.21029 22.15551c-.25195-.11279-.54785.00244-.65967.25439l-.54639 1.23291-.69482-1.27002c-.1748-.32129-.70215-.32129-.87695 0l-.7417 1.35596-.74219-1.35596c-.13281-.24316-.43555-.33301-.67822-.19873-.24268.13232-.33154.43604-.19873.67822l1.18066 2.1582c.1748.32129.70215.32129.87695 0l.7417-1.35596.74219 1.35596c.08789.16113.25635.26025.43848.26025.00684 0 .01367 0 .021-.00049.18994-.00781.35889-.12305.43604-.29688l.95605-2.1582c.11181-.25243-.00196-.54784-.2544-.65965z" fill="#2a44e2" style="fill: rgb(255, 255, 255);"></path><path d="m18.98715 22.15551c-.25195-.11279-.54785.00244-.65967.25439l-.54639 1.23291-.69482-1.27002c-.1748-.32129-.70215-.32129-.87695 0l-.7417 1.35596-.74219-1.35596c-.13281-.24316-.43604-.33301-.67822-.19873-.24268.13232-.33154.43604-.19873.67822l1.18066 2.1582c.1748.32129.70215.32129.87695 0l.7417-1.35596.74219 1.35596c.08789.16113.25635.26025.43848.26025.00684 0 .01367 0 .021-.00049.18994-.00781.35889-.12305.43604-.29688l.95605-2.1582c.11181-.25243-.00196-.54784-.2544-.65965z" fill="#2a44e2" style="fill: rgb(255, 255, 255);"></path><path d="m25.764 22.15551c-.25195-.11279-.54785.00244-.65967.25439l-.54639 1.23291-.69482-1.27002c-.1748-.32129-.70215-.32129-.87695 0l-.7417 1.35596-.74219-1.35596c-.13232-.24316-.43555-.33301-.67822-.19873-.24268.13232-.33154.43604-.19873.67822l1.18066 2.1582c.1748.32129.70215.32129.87695 0l.7417-1.35596.74219 1.35596c.08789.16113.25635.26025.43848.26025.00684 0 .01367 0 .021-.00049.18994-.00781.35889-.12305.43604-.29688l.95605-2.1582c.11181-.25243-.00196-.54784-.2544-.65965z" fill="#2a44e2" style="fill: rgb(255, 255, 255);"></path><path d="m18.49545 45.91967c2.0708 0 3.75537-1.68506 3.75537-3.75586s-1.68457-3.75537-3.75537-3.75537-3.75586 1.68457-3.75586 3.75537 1.68506 3.75586 3.75586 3.75586zm0-6.51123c1.51953 0 2.75537 1.23584 2.75537 2.75537s-1.23584 2.75586-2.75537 2.75586-2.75586-1.23633-2.75586-2.75586 1.23633-2.75537 2.75586-2.75537z" fill="#2a44e2" style="fill: rgb(255, 255, 255);"></path><path d="m33.9598 3.37084h7.07813c.27637 0 .5-.22363.5-.5s-.22363-.5-.5-.5h-7.07813c-.27637 0-.5.22363-.5.5s.22364.5.5.5z" fill="#2a44e2" style="fill: rgb(255, 255, 255);"></path><path d="m29.33334 3.37084h1.81738c.27637 0 .5-.22363.5-.5s-.22363-.5-.5-.5h-1.81738c-.27637 0-.5.22363-.5.5s.22363.5.5.5z" fill="#2a44e2" style="fill: rgb(255, 255, 255);"></path></g></g></svg>