<!-- icon666.com - MILLIONS vector ICONS FREE --><svg width="64" height="64" version="1.1" id="Capa_1" xmlns="http://www.w3.org/2000/svg" xmlns:xlink="http://www.w3.org/1999/xlink" x="0px" y="0px" viewBox="0 0 480 480" style="enable-background:new 0 0 480 480;" xml:space="preserve"><g><g><path d="M440,0H40C17.944,0,0,17.944,0,40v248v32c0,22.056,17.944,40,40,40h134.416l-13.096,72h-31.432 c-9.152,0-17.376,5.088-21.472,13.264c-3.752,7.496-3.352,16.224,1.048,23.352c4.408,7.128,12.04,11.384,20.424,11.384h220.216 c8.384,0,16.016-4.256,20.424-11.384c4.4-7.128,4.8-15.856,1.048-23.352c-4.088-8.176-12.32-13.264-21.464-13.264H318.68 l-13.096-72H440c22.056,0,40-17.944,40-40v-32V40C480,17.944,462.056,0,440,0z M312,448h38.112c3.056,0,5.8,1.696,7.16,4.424 c1.808,3.6,0.36,6.64-0.352,7.784c-0.712,1.136-2.776,3.792-6.808,3.792H129.888c-4.032,0-6.104-2.656-6.808-3.8 c-0.712-1.144-2.16-4.176-0.352-7.784c1.368-2.72,4.104-4.416,7.16-4.416H168h64c4.424,0,8-3.576,8-8s-3.576-8-8-8h-54.416 l13.096-72h98.64l13.096,72H280c-4.424,0-8,3.576-8,8s3.576,8,8,8H312z M464,320c0,13.232-10.768,24-24,24H296H184H40 c-13.232,0-24-10.768-24-24v-24h448V320z M464,280H16V40c0-13.232,10.768-24,24-24h400c13.232,0,24,10.768,24,24V280z" fill="#000000" style="fill: rgb(255, 255, 255);"></path></g></g><g><g><path d="M256,312h-32c-4.424,0-8,3.576-8,8s3.576,8,8,8h32c4.424,0,8-3.576,8-8S260.424,312,256,312z" fill="#000000" style="fill: rgb(255, 255, 255);"></path></g></g><g><g><path d="M384,232h-16.992c5.88-15.408,8.992-31.48,8.992-48c0-74.992-61.008-136-136-136s-136,61.008-136,136 c0,16.52,3.112,32.592,8.992,48H96c-4.424,0-8,3.576-8,8s3.576,8,8,8h29.032H128h39.432h145.144H352h2.968H384 c4.424,0,8-3.576,8-8S388.424,232,384,232z M253.936,223.832c-0.024,0.048-0.056,0.104-0.08,0.144 c-0.304,0.52-0.68,0.984-1.04,1.472c-0.296,0.4-0.576,0.816-0.904,1.176c-0.384,0.432-0.824,0.816-1.256,1.208 c-0.344,0.304-0.672,0.632-1.032,0.904c-0.432,0.328-0.904,0.6-1.368,0.88c-0.432,0.264-0.864,0.536-1.32,0.752 c-0.44,0.216-0.912,0.376-1.376,0.544c-0.52,0.192-1.032,0.392-1.56,0.536c-0.496,0.128-1.008,0.192-1.52,0.272 c-0.528,0.08-1.048,0.192-1.584,0.216c-0.496,0.024-0.984-0.016-1.48-0.032c-0.552-0.016-1.104-0.016-1.656-0.088 c-0.4-0.056-0.784-0.176-1.176-0.264c-0.632-0.136-1.264-0.264-1.888-0.48c-0.328-0.112-0.64-0.288-0.96-0.424 c-0.64-0.272-1.288-0.552-1.904-0.92c-0.36-0.216-0.696-0.488-1.048-0.736c-0.512-0.368-1.032-0.728-1.488-1.144 c-0.36-0.328-0.68-0.696-1.008-1.056c-0.384-0.424-0.784-0.832-1.12-1.288c-0.256-0.344-0.464-0.72-0.688-1.08 c-0.328-0.528-0.664-1.056-0.928-1.616c-0.16-0.336-0.272-0.696-0.408-1.048c-0.232-0.608-0.472-1.224-0.632-1.856 c-0.096-0.392-0.144-0.8-0.208-1.2c-0.104-0.608-0.224-1.216-0.256-1.84c-0.024-0.432,0.016-0.856,0.032-1.288 c0.016-0.608,0.016-1.224,0.104-1.832c0.048-0.368,0.16-0.72,0.24-1.08c0.144-0.664,0.28-1.32,0.504-1.968 c0.112-0.328,0.288-0.64,0.424-0.96c0.272-0.64,0.552-1.272,0.912-1.888c0.376-0.64,0.816-1.24,1.288-1.832 c0.184-0.232,0.44-0.52,0.664-0.776c2.76-3.024,6.48-4.88,10.584-5.192c0.408-0.032,0.824-0.048,1.232-0.048 c3.824,0,7.48,1.352,10.408,3.864c3.232,2.792,5.2,6.672,5.52,10.928C256.2,218.056,255.44,221.168,253.936,223.832z M260.864,191.736c-3.752-3.232-8.128-5.384-12.784-6.592c11.648-11.152,25.936-24.344,37.832-35.096 c-6.112,14.896-13.608,32.816-19.92,47.44C264.504,195.408,262.848,193.44,260.864,191.736z M349.856,232h-23.672 c6.44-13.632,9.816-28.6,9.816-44c0-10.368-1.512-20.576-4.504-30.36c-1.296-4.224-5.752-6.616-9.992-5.304 c-4.216,1.288-6.6,5.768-5.304,9.992c2.52,8.248,3.8,16.888,3.8,25.672c0,15.64-4.096,30.768-11.872,44H267.68 c1.104-1.904,2.008-3.92,2.704-6.032c10.608-23.36,44.456-99.344,42.392-105.624c-0.736-2.24-2.424-4.048-4.608-4.928 c-5.592-2.304-5.936-2.408-49.08,37.408c-15.44,14.248-33.776,31.608-42.24,41.248c-0.36,0.376-0.776,0.672-1.12,1.072 c-0.392,0.456-0.656,0.984-1.024,1.456c-0.776,0.976-1.528,1.92-1.952,2.616c-0.104,0.168-0.152,0.352-0.256,0.52 c-0.68,1.136-1.192,2.336-1.712,3.544c-0.312,0.728-0.696,1.424-0.96,2.168c-0.424,1.208-0.672,2.456-0.952,3.704 c-0.176,0.792-0.416,1.576-0.528,2.376c-0.16,1.136-0.152,2.288-0.184,3.448c-0.032,0.936-0.112,1.872-0.064,2.808 c0.008,0.208-0.032,0.416-0.016,0.624c0.072,0.968,0.336,1.888,0.496,2.832c0.144,0.872,0.24,1.752,0.456,2.608 c0.312,1.248,0.776,2.424,1.232,3.616c0.28,0.728,0.512,1.464,0.84,2.176c0.384,0.816,0.848,1.584,1.304,2.36h-40.544 C164.096,218.768,160,203.64,160,188c0-7.728,1-15.376,2.96-22.736c1.144-4.264-1.392-8.648-5.664-9.792 c-4.2-1.152-8.648,1.392-9.792,5.664C145.176,169.832,144,178.872,144,188c0,15.4,3.376,30.368,9.816,44h-23.672 C123.408,216.704,120,200.576,120,184c0-66.168,53.832-120,120-120s120,53.832,120,120C360,200.576,356.592,216.704,349.856,232z" fill="#000000" style="fill: rgb(255, 255, 255);"></path></g></g><g><g><path d="M275.04,94.872c-27.128-11.088-58.912-8.448-84.056,7.12c-3.76,2.328-4.912,7.256-2.592,11.016 c1.512,2.448,4.136,3.792,6.816,3.792c1.44,0,2.888-0.384,4.2-1.192c20.832-12.904,47.152-15.088,69.584-5.912 c4.072,1.672,8.76-0.288,10.432-4.384S279.136,96.544,275.04,94.872z" fill="#000000" style="fill: rgb(255, 255, 255);"></path></g></g></svg>